<?xml version="1.0" standalone="no"?>
<!DOCTYPE svg PUBLIC "-//W3C//DTD SVG 20010904//EN"
 "http://www.w3.org/TR/2001/REC-SVG-20010904/DTD/svg10.dtd">
<svg version="1.0" xmlns="http://www.w3.org/2000/svg"
 width="20%" height="100" viewBox="0 0 300.000000 72.000000"
 preserveAspectRatio="xMidYMid meet">
<metadata>
Created by potrace 1.10, written by Peter Selinger 2001-2011
</metadata>
<g transform="translate(0.000000,72.000000) scale(0.100000,-0.100000)"
fill="red" stroke="none">
<path d="M720 325 c0 -143 4 -225 10 -225 6 0 10 82 10 225 0 143 -4 225 -10
225 -6 0 -10 -82 -10 -225z" fill="#00ff00" />
<path d="M471 471 c-13 -23 -75 -61 -101 -61 -21 0 -32 -21 -19 -41 5 -8 9
-40 9 -71 l0 -57 69 -41 70 -40 51 30 c28 16 60 30 71 30 26 0 35 25 19 54 -6
13 -11 36 -10 52 4 64 1 72 -47 100 -27 15 -54 36 -61 46 -17 23 -39 23 -51
-1z m19 -51 c0 -28 -65 -60 -83 -41 -7 8 -8 15 -2 17 6 2 24 13 40 23 39 25
45 25 45 1z m73 -5 c41 -21 44 -42 6 -36 -38 5 -59 20 -59 42 0 11 3 19 8 17
4 -2 24 -12 45 -23z m-73 -60 c0 -23 -2 -25 -22 -14 -21 11 -21 12 -3 25 25
18 25 18 25 -11z m-72 -34 c3 -31 -9 -50 -30 -51 -3 0 -6 21 -6 46 0 37 3 45
16 42 11 -2 18 -15 20 -37z m192 -6 c0 -43 -1 -45 -20 -35 -24 13 -23 9 -9 49
16 45 29 38 29 -14z m-149 -66 c16 -11 29 -29 29 -40 0 -18 -3 -17 -50 9 -44
24 -48 28 -33 40 21 15 20 16 54 -9z m127 9 c7 -10 -1 -20 -34 -40 -40 -25
-44 -26 -44 -8 0 17 43 60 60 60 4 0 12 -6 18 -12z" fill="#E53D30"/>
<path d="M1814 409 c-8 -14 18 -31 30 -19 9 9 0 30 -14 30 -5 0 -12 -5 -16
-11z" fill="#FCC421" />
<path d="M1090 386 c0 -19 -4 -22 -25 -18 -31 6 -55 -13 -55 -44 0 -34 25 -53
70 -52 l40 0 0 69 c0 55 -3 69 -15 69 -9 0 -15 -9 -15 -24z m-4 -51 c8 -20
-13 -45 -32 -38 -14 5 -19 34 -7 46 11 12 33 7 39 -8z" fill="#249544"/>
<path d="M1760 340 c0 -56 3 -70 15 -70 12 0 15 14 15 70 0 56 -3 70 -15 70
-12 0 -15 -14 -15 -70z" fill="#0087D2"/>
<path d="M1879 368 c-14 -55 -2 -116 28 -136 l23 -14 -16 38 c-16 37 -15 97 1
137 5 12 2 17 -9 17 -10 0 -19 -15 -27 -42z" fill="#b818f2"/>
<path d="M2080 340 c0 -54 3 -70 14 -70 10 0 16 13 18 38 2 25 8 37 18 37 10
0 16 -12 18 -37 4 -53 32 -52 32 1 0 43 -19 66 -50 58 -16 -4 -20 0 -20 19 0
15 -6 24 -15 24 -12 0 -15 -14 -15 -70z" fill="#04b89d"/>
<path d="M2584 386 c5 -20 3 -23 -19 -18 -33 6 -55 -14 -55 -48 0 -36 17 -48
63 -47 l37 1 0 68 c0 56 -3 68 -16 68 -12 0 -15 -6 -10 -24z m-4 -52 c11 -12
10 -18 -3 -32 -16 -15 -18 -15 -34 0 -13 14 -14 20 -3 32 7 9 16 16 20 16 4 0
13 -7 20 -16z" fill="#62f711"/>
<path d="M2696 370 c13 -39 10 -87 -8 -122 -6 -13 -5 -18 6 -18 23 0 36 33 36
90 0 56 -13 90 -34 90 -11 0 -11 -6 0 -40z" fill="#E53D30"/>
<path d="M810 335 c0 -58 2 -65 19 -65 15 0 19 6 18 28 -2 23 2 28 26 30 24 3
27 0 27 -27 0 -21 5 -31 15 -31 12 0 15 14 15 65 0 51 -3 65 -15 65 -9 0 -15
-9 -15 -25 0 -21 -5 -25 -31 -25 -28 0 -31 2 -25 25 5 20 3 25 -14 25 -18 0
-20 -6 -20 -65z" fill="#FCC421"/>
<path d="M1480 386 c0 -8 -6 -17 -12 -19 -10 -4 -10 -8 -1 -14 6 -4 13 -24 15
-43 3 -30 7 -35 32 -38 20 -3 27 0 23 10 -2 7 -10 12 -16 10 -15 -3 -14 55 1
60 7 3 5 12 -8 26 -21 25 -34 28 -34 8z" fill="#249544"/>
<path d="M1597 333 c-9 -37 -17 -71 -17 -75 0 -15 41 -8 46 7 4 8 17 15 30 15
15 0 24 -6 24 -15 0 -9 10 -15 26 -15 28 0 28 7 0 105 -11 37 -15 40 -52 43
l-39 3 -18 -68z m103 5 c7 -29 15 -59 17 -65 3 -7 -2 -13 -11 -13 -9 0 -16 7
-16 15 0 10 -11 15 -35 15 -24 0 -35 -5 -35 -15 0 -8 -7 -15 -16 -15 -10 0
-14 6 -10 18 3 9 10 38 17 65 11 44 14 47 43 47 30 0 33 -3 46 -52z" fill="#0087D2"/>
<path d="M1637 344 c-3 -17 0 -28 10 -31 21 -8 32 9 22 35 -11 29 -26 28 -32
-4z" fill="#b818f2"/>
<path d="M1964 363 c-9 -21 -23 -50 -30 -65 -14 -26 -13 -28 6 -28 11 0 20 7
20 15 0 10 11 15 35 15 24 0 35 -5 35 -15 0 -8 9 -15 19 -15 19 0 18 4 -9 63
-34 75 -54 83 -76 30z m46 -30 c0 -7 -7 -13 -15 -13 -16 0 -19 9 -9 35 5 13 8
14 15 3 5 -7 9 -19 9 -25z" fill="#04b89d"/>
<path d="M960 320 c0 -38 4 -50 15 -50 11 0 15 12 15 50 0 38 -4 50 -15 50
-11 0 -15 -12 -15 -50z" fill="#62f711"/>
<path d="M1145 360 c-7 -11 -1 -13 33 -10 32 2 27 -18 -5 -22 -22 -2 -28 -8
-28 -28 0 -22 4 -25 43 -27 l42 -2 0 38 c0 20 -5 42 -12 49 -15 15 -64 16 -73
2z" fill="#E53D30"/>
<path d="M1260 324 c25 -57 25 -64 0 -64 -11 0 -20 -4 -20 -9 0 -15 18 -23 39
-16 16 5 29 29 68 123 3 6 -2 12 -10 12 -8 0 -20 -15 -27 -32 l-12 -33 -14 33
c-8 17 -21 32 -29 32 -12 0 -11 -8 5 -46z" fill="#FCC421"/>
<path d="M1363 358 c2 -7 13 -12 25 -10 11 2 23 -2 27 -8 4 -6 -4 -10 -18 -10
-14 0 -30 -7 -37 -15 -19 -23 4 -44 51 -43 38 0 39 1 39 37 0 20 -5 42 -12 49
-16 16 -81 16 -75 0z" fill="#249544"/>
<path d="M1820 320 c0 -38 4 -50 15 -50 11 0 15 12 15 50 0 38 -4 50 -15 50
-11 0 -15 -12 -15 -50z" fill="#0087D2"/>
<path d="M2205 319 c0 -41 3 -49 18 -49 14 0 17 5 12 20 -9 27 3 60 21 60 15
0 17 -8 14 -52 -1 -19 3 -28 14 -28 10 0 16 12 18 37 2 27 8 39 21 41 14 3 17
-4 17 -37 0 -30 4 -41 16 -41 12 0 14 10 12 48 l-3 47 -80 1 -80 2 0 -49z" fill="#b818f2"/>
<path d="M2400 356 c0 -9 8 -12 24 -9 13 3 27 0 30 -6 5 -7 -2 -11 -17 -11
-14 0 -30 -7 -37 -15 -20 -24 4 -44 51 -43 l39 0 -6 37 c-3 20 -7 42 -9 49 -6
17 -75 16 -75 -2z" fill="#04b89d"/>
<path d="M2640 320 c0 -38 4 -50 15 -50 11 0 15 12 15 50 0 38 -4 50 -15 50
-11 0 -15 -12 -15 -50z" fill="#62f711"/>
</g>
</svg>
