<?xml version="1.0" standalone="no"?>
<!DOCTYPE svg PUBLIC "-//W3C//DTD SVG 20010904//EN"
 "http://www.w3.org/TR/2001/REC-SVG-20010904/DTD/svg10.dtd">
<svg version="1.0" xmlns="http://www.w3.org/2000/svg"
 width="32" height="32" viewBox="0 0 3464.000000 3464.000000"
 preserveAspectRatio="xMidYMid meet">

<g transform="translate(0.000000,3464.000000) scale(0.100000,-0.100000)"
fill="#000000" stroke="none">
<path d="M19837 19853 c-6 -22 -15 -75 -22 -131 -11 -87 -22 -432 -16 -469 4
-21 4 -90 0 -153 -4 -63 -10 -159 -13 -212 l-6 -98 -85 -167 c-55 -109 -101
-185 -130 -218 -25 -27 -58 -70 -72 -95 -15 -25 -35 -54 -46 -65 -10 -11 -30
-40 -45 -65 -14 -25 -56 -88 -94 -141 -37 -53 -68 -99 -68 -103 0 -4 -29 -51
-65 -104 -36 -54 -68 -114 -71 -133 -4 -18 -20 -73 -35 -121 -32 -94 -32 -95
-30 -422 1 -196 3 -213 27 -283 14 -41 25 -88 24 -106 -5 -92 -5 -92 68 -125
111 -50 201 -70 385 -81 121 -8 342 0 418 14 l36 7 -4 81 c-8 184 -35 447 -53
527 -11 47 -22 102 -25 122 -3 21 -17 50 -30 64 -31 33 -32 69 -4 84 18 10 20
20 20 103 0 51 1 187 3 302 1 116 0 228 -5 250 -4 22 -12 65 -18 95 -17 79
-13 676 5 808 6 46 5 52 -10 46 -14 -5 -16 8 -15 122 0 71 4 167 9 214 6 65 5
93 -6 119 -9 22 -15 85 -16 192 -2 87 -4 159 -5 159 -1 0 -4 -8 -6 -17z"/>
<path d="M19903 16185 c-201 -38 -466 -46 -637 -20 -55 8 -102 15 -106 15 -9
0 -45 -114 -65 -206 -13 -59 -14 -90 -5 -190 6 -65 17 -200 25 -299 13 -182
30 -255 58 -255 27 0 57 -45 57 -86 0 -21 -4 -44 -8 -50 -20 -29 -197 -34
-1435 -33 -686 0 -1264 -3 -1285 -7 -44 -8 -71 -29 -87 -69 -12 -32 -12 -545
0 -566 4 -5 23 -21 43 -35 21 -13 52 -36 71 -49 19 -14 45 -25 58 -25 16 0 37
-13 58 -36 18 -20 42 -46 54 -58 12 -11 55 -55 96 -96 l75 -75 0 -55 c0 -43
-6 -64 -25 -93 -38 -55 -89 -76 -208 -87 -56 -5 -129 -19 -162 -30 -39 -14
-123 -28 -240 -40 -181 -18 -225 -28 -257 -57 -30 -27 -191 -41 -543 -48 -211
-4 -240 -7 -357 -34 -108 -25 -155 -31 -325 -37 -154 -5 -209 -11 -248 -25
-98 -36 -285 -48 -770 -53 -253 -2 -534 -10 -625 -16 -91 -6 -214 -9 -275 -6
-60 4 -202 10 -315 14 -144 5 -212 11 -229 21 -13 7 -74 17 -135 22 -193 15
-328 28 -436 43 -58 8 -166 17 -240 20 -74 4 -146 9 -160 12 -20 3 -38 -8 -90
-57 -90 -85 -174 -143 -272 -188 -204 -96 -412 -109 -598 -38 -146 55 -400
196 -400 221 0 7 13 44 29 82 22 54 32 69 47 67 10 -1 82 -12 159 -24 214 -32
423 -27 545 14 l35 11 -45 8 c-25 4 -124 10 -220 14 l-175 7 -101 42 c-214 91
-450 152 -545 140 -52 -6 -56 -5 -107 34 -52 40 -123 76 -219 112 -28 11 -56
26 -63 34 -20 24 -138 58 -181 52 -56 -7 -72 -23 -66 -66 19 -129 48 -195 118
-275 29 -33 51 -72 65 -115 17 -50 30 -72 57 -91 50 -37 143 -142 168 -192 31
-62 131 -187 184 -231 25 -21 64 -64 87 -95 23 -31 48 -63 55 -70 7 -7 20 -26
30 -42 9 -17 21 -30 25 -30 26 0 92 -59 114 -101 21 -42 33 -53 111 -93 49
-25 95 -46 103 -46 9 0 54 -13 100 -29 123 -43 153 -49 277 -61 67 -6 130 -18
157 -30 25 -10 82 -24 128 -30 46 -6 126 -24 178 -40 140 -42 249 -60 358 -60
53 -1 144 -5 200 -9 93 -8 109 -12 146 -39 63 -46 170 -54 671 -53 231 0 439
-2 462 -5 39 -6 44 -9 52 -43 5 -20 11 -66 14 -103 l5 -67 -37 -28 c-20 -15
-61 -51 -92 -80 l-55 -52 -48 14 c-76 23 -83 15 -81 -100 2 -90 3 -97 33 -134
20 -25 29 -45 25 -59 -7 -27 67 -102 102 -102 41 0 88 -29 125 -78 56 -76 117
-129 167 -146 63 -22 64 -21 114 22 24 22 56 45 71 53 15 8 37 30 50 49 15 22
38 40 62 48 22 7 56 28 76 46 21 18 60 41 88 50 28 9 53 24 56 32 7 17 45 18
67 1 9 -7 31 -36 48 -64 18 -29 40 -55 50 -58 34 -10 71 -61 79 -106 5 -28 13
-44 22 -45 8 0 35 -4 60 -8 25 -3 68 -8 95 -11 28 -2 64 -7 81 -10 26 -6 35
-2 57 25 15 17 30 50 33 72 6 35 12 42 48 58 52 22 67 39 71 85 4 44 26 78 64
101 20 12 33 30 40 58 26 105 28 173 6 216 -17 34 -79 60 -140 60 -50 0 -60
10 -57 57 2 19 -2 52 -8 74 -20 74 3 97 120 117 148 25 163 25 225 -8 31 -16
61 -30 65 -30 4 0 33 15 64 34 33 20 94 43 146 56 50 12 106 33 125 46 63 42
103 47 343 40 169 -5 250 -3 340 8 64 8 178 22 252 31 74 9 158 23 187 31 28
8 64 14 80 14 17 0 52 7 79 15 27 9 85 23 129 31 153 30 210 43 265 60 115 34
287 74 323 74 14 0 38 5 54 11 15 6 53 15 83 20 81 15 175 45 239 78 31 15 79
38 106 50 28 12 58 26 67 32 10 5 48 19 85 30 38 12 95 30 127 40 33 10 67 19
75 20 37 1 84 45 96 89 7 25 33 94 59 155 25 60 46 113 46 117 0 10 38 89 69
142 13 22 34 63 49 90 72 142 161 214 310 252 83 22 265 24 342 6 51 -13 59
-12 110 9 53 21 69 22 391 25 330 3 384 7 454 39 17 7 59 16 95 19 36 4 92 12
126 18 46 8 88 8 168 -1 116 -13 446 -13 1191 -1 466 7 501 10 551 42 31 20
199 38 339 37 166 -1 161 -2 261 48 l71 35 203 9 c163 7 207 12 221 25 36 32
92 43 224 44 106 0 137 3 165 18 19 10 44 23 55 28 11 6 33 17 50 25 30 15 39
32 71 144 9 33 21 64 26 69 4 6 8 34 8 64 0 75 27 185 55 224 41 57 72 120 90
188 10 36 33 95 52 132 18 37 33 75 33 85 0 33 -40 84 -77 100 -49 20 -58 22
-203 34 -199 17 -291 18 -367 4 -61 -12 -79 -12 -125 1 -89 23 -196 19 -263
-12 -56 -26 -60 -26 -229 -22 -164 4 -174 6 -241 35 -38 17 -80 34 -91 37 -59
18 -80 97 -45 169 23 47 40 58 121 77 69 17 191 -1 230 -33 31 -27 49 -30 200
-43 123 -11 159 -8 189 14 83 61 120 70 304 72 26 0 78 113 70 154 -14 75
-165 290 -249 354 -64 50 -120 57 -319 42 -172 -12 -270 -7 -342 21 -84 32
-237 60 -358 65 -128 6 -132 6 -286 -34 -86 -22 -172 -48 -192 -59 -61 -31
-267 -203 -375 -313 -110 -112 -115 -122 -131 -248 -5 -38 -14 -79 -20 -91
-10 -18 -8 -27 8 -50 30 -42 39 -71 51 -163 8 -65 15 -87 35 -108 14 -15 34
-52 45 -84 19 -52 20 -68 11 -167 -10 -122 -23 -149 -72 -149 -35 0 -59 40
-52 88 6 34 -41 142 -61 142 -5 0 -28 21 -51 47 l-41 46 -110 8 c-60 4 -203 5
-319 2 -178 -4 -216 -3 -247 11 -20 9 -39 24 -42 33 -13 41 -13 226 -1 333 8
63 14 193 14 289 l1 174 -37 91 c-20 50 -42 116 -48 146 -13 64 -18 66 -132
45z m2107 -216 l69 -40 -45 -70 c-80 -123 -124 -248 -124 -349 0 -66 22 -112
68 -142 35 -23 57 -33 124 -57 l28 -10 -22 -38 c-61 -105 -143 -190 -224 -231
-44 -23 -161 29 -210 93 -38 50 -53 100 -53 175 -1 167 75 368 226 594 42 64
81 116 86 116 5 0 39 -18 77 -41z m-8432 -3724 c66 -20 177 -92 192 -125 10
-22 8 -27 -21 -51 -18 -15 -40 -24 -48 -21 -10 4 -13 1 -8 -11 3 -9 2 -17 -3
-17 -6 0 -10 -6 -10 -13 0 -7 -12 -25 -27 -40 -27 -25 -29 -26 -106 -16 -54 7
-83 6 -98 -1 -22 -12 -47 2 -115 66 -30 28 -31 33 -32 114 -1 73 1 87 20 107
19 21 31 23 113 23 53 0 113 -6 143 -15z"/>
<path d="M14890 15816 c-161 -46 -289 -152 -420 -349 -33 -51 -113 -195 -177
-322 -64 -126 -135 -259 -158 -295 -85 -131 -201 -221 -325 -249 -25 -6 -92
-11 -149 -11 l-104 0 5 -170 c3 -94 8 -173 12 -177 3 -3 52 -6 108 -6 198 1
332 56 465 191 l81 83 89 -45 c156 -79 427 -161 658 -200 78 -13 310 -36 367
-36 11 0 44 23 74 51 156 148 207 333 170 619 -54 423 -249 806 -461 906 -57
27 -158 31 -235 10z m103 -414 c116 -77 227 -393 262 -751 l6 -63 -58 6 c-168
20 -363 62 -518 112 -95 31 -275 113 -275 126 0 16 131 251 187 336 30 46 78
107 107 136 97 99 222 142 289 98z"/>
</g>
</svg>
