<?xml version="1.0" standalone="no"?>
<!DOCTYPE svg PUBLIC "-//W3C//DTD SVG 20010904//EN"
 "http://www.w3.org/TR/2001/REC-SVG-20010904/DTD/svg10.dtd">
<svg version="1.0" xmlns="http://www.w3.org/2000/svg"
 width="200" height="200" viewBox="0 0 322.000000 429.000000"
 preserveAspectRatio="xMidYMid meet">
<metadata>
Created by potrace 1.16, written by Peter Selinger 2001-2019
</metadata>
<g transform="translate(0.000000,429.000000) scale(0.100000,-0.100000)"
fill="#000000" stroke="none">
<path d="M1429 4274 c30 -12 427 -123 626 -174 178 -45 371 -109 449 -147 40
-20 57 -23 96 -18 27 4 63 17 80 30 18 13 147 81 286 150 230 113 254 128 254
150 l0 25 -912 0 c-815 -1 -909 -2 -879 -16z" fill="green"/>
<path d="M1215 3710 c-3 -5 -13 -10 -20 -10 -17 0 -32 -12 -129 -99 -39 -35
-76 -77 -81 -93 -6 -16 -14 -26 -18 -22 -4 4 -7 2 -7 -4 0 -7 4 -12 9 -12 11
0 3 -39 -12 -58 -12 -15 -30 -156 -30 -230 0 -49 2 -54 40 -87 53 -45 66 -97
59 -226 -9 -149 20 -312 76 -423 20 -39 116 -168 130 -174 5 -2 8 -53 8 -113
0 -112 12 -162 47 -201 12 -14 18 -15 24 -6 6 9 13 8 28 -6 12 -11 21 -25 21
-32 0 -12 13 -16 90 -29 123 -21 338 106 455 269 69 97 114 206 86 206 -5 0
-13 -17 -18 -37 -8 -32 -13 -38 -35 -37 -24 1 -25 -2 -21 -35 6 -46 -39 -134
-87 -171 -33 -25 -33 -25 -28 -2 4 12 2 20 -3 16 -5 -3 -10 2 -10 10 -2 18 -3
25 -11 46 -10 25 -27 134 -24 155 3 28 34 85 66 122 29 32 49 89 70 198 7 33
16 65 21 71 5 6 6 14 3 17 -11 11 6 57 21 57 9 0 21 12 27 26 15 31 2 56 -33
64 -29 7 -36 34 -15 56 9 8 16 22 16 29 0 8 8 20 18 27 9 7 30 32 45 56 15 24
45 62 67 84 38 40 66 116 56 150 -2 7 -10 45 -16 85 -7 40 -16 70 -20 68 -7
-5 -40 37 -40 51 0 3 7 4 14 1 10 -4 13 -1 9 9 -3 7 -9 14 -14 14 -5 0 -16 15
-25 33 -19 38 -65 77 -96 82 -54 7 -88 18 -99 31 -6 8 -17 14 -23 14 -6 0 -3
-5 7 -11 9 -6 15 -15 11 -20 -4 -6 -18 1 -35 17 -28 26 -29 27 -29 6 0 -14 -6
-20 -20 -19 -10 1 -17 3 -15 5 7 8 -67 62 -92 68 -13 4 -38 3 -56 0 -59 -12
-87 -13 -87 -4 0 5 -10 8 -22 7 -13 -1 -30 1 -38 4 -27 10 -180 15 -180 6 0
-5 -7 -9 -16 -9 -8 0 -12 5 -9 10 3 6 4 10 1 10 -3 0 -8 -4 -11 -10z m429
-416 c35 -6 83 -53 70 -67 -18 -18 11 -81 66 -141 33 -36 62 -76 65 -88 15
-70 23 -139 20 -161 -6 -30 -50 -111 -70 -127 -8 -7 -26 -13 -40 -14 -14 0
-28 -9 -31 -18 -3 -10 -11 -15 -20 -11 -8 3 -14 -1 -14 -10 0 -29 -32 -37 -65
-17 -17 10 -51 20 -75 21 -25 2 -56 9 -70 16 -14 7 -32 13 -40 14 -9 0 -7 4 8
11 29 14 28 36 -2 44 -30 7 -66 -11 -66 -33 0 -13 -3 -14 -12 -5 -7 7 -21 12
-32 12 -11 0 -28 7 -38 17 -22 19 -32 12 -23 -16 4 -12 12 -18 21 -14 7 3 14
1 14 -5 0 -5 -21 -17 -47 -26 -27 -9 -63 -25 -82 -34 l-33 -18 -49 45 c-34 31
-47 50 -44 62 3 10 1 20 -5 24 -11 7 -13 64 -4 153 6 55 9 60 25 52 10 -6 20
-19 24 -30 3 -10 21 -25 40 -31 19 -7 32 -16 30 -20 -8 -12 34 -18 65 -9 15 4
42 18 59 31 25 18 31 30 31 60 0 21 7 45 16 54 15 14 19 14 48 -3 23 -13 32
-27 36 -53 4 -29 12 -38 59 -61 58 -29 111 -35 158 -17 22 8 24 12 13 20 -13
8 -12 12 5 25 11 8 27 13 36 11 9 -3 23 -1 30 4 11 7 11 9 1 9 -7 0 -10 5 -7
10 3 6 3 16 -2 23 -15 24 -11 37 13 37 13 0 24 4 24 9 0 14 -63 61 -84 62 -77
5 -155 3 -176 -5 -14 -5 -29 -10 -35 -10 -5 -1 -31 -9 -57 -20 -46 -18 -47
-18 -103 3 -79 30 -186 29 -215 -1 -14 -16 -20 -18 -20 -7 0 24 30 60 48 57 9
-2 17 2 17 9 0 6 13 21 28 33 31 25 30 38 -2 20 -12 -6 -21 -8 -21 -5 0 10 48
55 59 55 6 0 14 7 19 16 6 10 28 18 58 22 54 5 62 5 149 1 45 -2 69 2 95 17
44 24 72 33 87 29 6 -2 28 -7 47 -11z" fill="green"/>
<path d="M2954 2050 c-43 -45 -56 -48 -102 -20 -40 25 -72 25 -114 2 -18 -10
-38 -17 -44 -15 -21 7 -23 -25 -3 -43 32 -29 44 -69 64 -201 l18 -121 43 21
c42 20 44 20 63 3 14 -13 18 -24 12 -39 -8 -21 -5 -22 88 -32 114 -13 130 -10
102 17 -35 32 -24 51 39 68 25 6 57 23 73 38 27 26 27 26 27 161 0 156 3 150
-100 183 -90 29 -122 25 -166 -22z" fill="green"/>
<path d="M3163 1593 c-33 -3 -43 -8 -43 -22 0 -33 -21 -41 -117 -41 -51 0
-113 -5 -137 -12 -40 -11 -47 -10 -67 8 l-21 19 6 -285 c4 -175 11 -311 20
-353 16 -81 15 -81 -71 -74 -196 15 -463 30 -467 26 -3 -3 8 -50 25 -104 16
-55 28 -108 25 -117 -3 -15 4 -17 68 -16 39 1 63 3 53 6 -13 2 -17 10 -14 23
4 14 -1 23 -17 29 -29 10 -43 29 -48 60 -2 17 -10 26 -26 28 -19 3 -53 42 -36
42 3 0 0 7 -7 17 -13 15 -2 16 146 9 88 -4 198 -13 245 -19 l85 -12 3 -210 c3
-219 -7 -339 -36 -427 -14 -45 -17 -49 -22 -28 -5 18 -12 24 -27 22 -25 -3
-37 24 -28 61 7 26 -2 73 -12 63 -8 -8 -33 21 -33 38 0 17 -16 22 -22 6 -5
-15 -48 1 -49 19 0 11 -3 9 -9 -6 -12 -29 -35 -21 -49 15 -5 15 -10 20 -10 11
-1 -12 -9 -15 -28 -13 -15 1 -33 -2 -39 -7 -8 -7 -14 -7 -18 0 -4 6 -13 8 -22
4 -8 -3 -21 3 -30 13 -10 14 -12 14 -9 3 5 -13 0 -15 -27 -11 -18 3 -37 11
-41 19 -8 12 -12 11 -29 -7 -11 -12 -23 -18 -27 -13 -3 5 -13 8 -21 8 -8 -1
-19 1 -25 4 -16 9 -38 13 -67 13 -19 0 -29 7 -34 21 -5 15 -8 17 -15 6 -6 -10
-9 -7 -10 11 -1 17 -3 19 -6 7 -8 -29 -26 -20 -19 10 5 20 4 24 -3 14 -8 -12
-14 -10 -35 10 -14 13 -26 30 -26 37 0 7 -5 10 -10 7 -6 -4 -17 -1 -25 5 -8 7
-25 10 -37 7 -11 -3 -30 -2 -40 4 -12 6 -18 6 -18 -1 0 -5 -5 -10 -11 -10 -7
0 -9 10 -7 25 5 26 6 26 -65 29 -15 0 -31 6 -35 12 -4 7 -29 11 -65 9 -53 -3
-57 -2 -52 16 8 25 -24 39 -37 16 -10 -18 -53 -23 -63 -7 -3 5 -12 7 -20 3 -9
-3 -21 -1 -28 5 -7 6 -44 11 -82 11 -71 -1 -159 19 -198 43 -38 24 -77 38 -77
28 0 -5 17 -17 37 -26 l36 -18 -28 -9 c-29 -10 -106 2 -175 28 -19 7 -48 13
-65 14 -21 1 -40 12 -62 36 -18 19 -37 35 -43 35 -6 0 -9 4 -6 9 5 7 51 16
129 25 15 1 33 8 40 15 19 20 -15 38 -88 46 -36 3 -65 11 -65 16 0 5 -4 9 -10
9 -5 0 -10 -6 -10 -14 0 -14 -7 -14 -95 4 -27 6 -80 13 -117 17 -38 3 -68 10
-68 15 0 5 -4 6 -10 3 -12 -7 -50 12 -50 25 0 13 66 40 96 40 18 0 22 4 17 17
-4 10 -11 21 -16 25 -6 3 -40 55 -77 115 -40 64 -73 108 -83 108 -9 0 -22 8
-29 17 -8 11 -40 22 -88 30 -91 14 -102 21 -90 54 6 14 6 24 0 24 -5 0 -10
-10 -12 -22 -2 -19 -10 -24 -42 -26 -38 -3 -38 -3 -32 25 4 15 26 74 48 131
22 57 38 105 36 108 -6 5 -95 -184 -104 -220 -4 -16 -15 -31 -25 -33 -17 -5
-19 -17 -19 -152 0 -146 0 -146 29 -181 34 -42 101 -165 101 -186 0 -12 4 -13
20 -4 11 6 20 7 20 2 0 -5 29 -24 65 -42 36 -18 70 -39 75 -45 6 -7 18 -11 28
-9 9 3 27 -3 38 -13 18 -14 20 -21 11 -40 -5 -13 -13 -23 -16 -23 -19 1 -46
28 -46 45 0 11 -6 19 -13 17 -74 -15 -162 14 -172 58 -5 22 -12 25 -63 27
l-58 4 16 -30 c19 -38 19 -38 -10 -45 -24 -6 -25 -10 -24 -74 1 -37 4 -55 6
-39 6 38 20 34 25 -9 3 -27 0 -39 -14 -47 -17 -11 -18 -32 -18 -274 l0 -263
356 0 356 0 -7 28 c-4 15 -24 72 -46 126 -21 55 -37 101 -35 103 5 5 49 -91
82 -179 l29 -78 492 0 c434 0 492 2 487 15 -5 12 3 15 32 16 l39 1 -53 16
c-45 13 -57 22 -77 56 -21 36 -38 48 -130 91 -58 27 -101 51 -95 55 11 7 -156
57 -240 72 -50 9 -133 6 -215 -7 -21 -4 -37 1 -54 15 l-23 20 23 20 c24 19 55
28 45 12 -6 -9 24 -9 39 0 21 12 170 18 185 7 13 -9 12 -10 -3 -5 -24 8 -70
-11 -61 -25 5 -8 9 -8 14 1 5 8 24 10 61 6 37 -3 46 -2 29 3 -23 8 -22 9 11
10 35 1 144 -33 227 -70 27 -13 40 -24 36 -32 -4 -7 -4 -9 1 -5 4 4 14 0 22
-10 9 -10 12 -11 7 -2 -6 13 -4 12 12 -1 38 -31 170 -97 237 -118 37 -11 77
-26 89 -32 28 -15 137 -41 147 -35 4 3 35 -1 68 -9 57 -13 185 -27 246 -26 33
0 35 -12 5 -27 -17 -8 97 -11 430 -11 l452 -1 0 800 c0 440 -3 799 -7 798 -5
-1 -27 -3 -50 -5z"/>
<path d="M2173 1414 c2 -38 -2 -107 -9 -154 -8 -47 -18 -119 -24 -160 -13 -96
-18 -111 -45 -132 -13 -10 -26 -33 -29 -52 -4 -19 -11 -36 -17 -38 -6 -2 -6
-13 1 -33 9 -25 16 -30 44 -30 51 0 65 17 56 68 -5 23 -6 44 -4 46 13 14 33 5
48 -20 9 -16 24 -29 33 -29 12 0 14 9 9 48 -15 115 -19 174 -20 283 -1 81 -5
121 -14 132 -9 11 -13 36 -10 73 2 41 -1 58 -10 62 -11 3 -13 -10 -9 -64z"/>
</g>
</svg>
